<?xml version="1.0" encoding="utf-8"?>
<!-- Generator: Adobe Illustrator 25.0.1, SVG Export Plug-In . SVG Version: 6.00 Build 0)  -->
<svg version="1.1" id="Layer_1" xmlns="http://www.w3.org/2000/svg" xmlns:xlink="http://www.w3.org/1999/xlink" x="0px" y="0px"
	 viewBox="0 0 841.89 595.28" style="enable-background:new 0 0 841.89 595.28;" xml:space="preserve">
<style type="text/css">
	.st0{fill-rule:evenodd;clip-rule:evenodd;fill:#2C2664;}
</style>
<g>
	<g>
		<path class="st0" d="M298.89,305.72c-5.1-0.61-29.34-0.04-36.75-1.03c-16.17-2.18-28.18-5.94-33.83-4.74
			c-5.6,1.21-30.64,13.12-40.77,18.24c-0.18,0.03-5.6,1.27-5.99,1.35c-3.08-0.76-44.29-14.38-66.2-7.31
			c-10.74,3.48-43.2,11.95-43.2,11.95c-3.28,1.02,1.92,1.37,3.46,1.15c1.54-0.21,6.87-1.05,13.18-2.34
			c12.65-2.57,19.79-2.99,26.46-3.37c12.72-0.73,31.71,1.22,46.92,8.78c1.18,0.58,1.75,1.24,1.8,2.02c0.09,2.14-3.41,5.64-4.83,6.54
			c0,0,4.41,0.23,7.2-0.6c1.04-0.31,2.21-0.38,3.82-0.48c2.08-0.15,4.93-0.34,9.37-1.16c8.81-1.61,12.75-3.8,16.94-6.14l0.3-0.17
			c2.7-1.49,26.74-11.28,26.74-11.28c14.41-5.9,20.47-0.21,37.71-2.06c17.25-1.84,30.91-6.87,41.44-7.75
			C304.61,307.16,300.11,305.86,298.89,305.72z M264.85,317.95c0.16,1.78,0.24,3.6,0.24,5.41c0,7.25-3.31,20.28-3.31,20.28
			c-0.14,0.54-0.36,1.3-0.5,1.68c-0.12,0.39,0.23,0.7,0.77,0.7h8.81c0.55,0,1.07-0.15,1.13-0.37c0.05-0.2,0.21-0.82,0.33-1.36
			c0,0,3.01-13.48,3.01-20.93c0-2.38-0.16-4.72-0.38-7.06C271.77,316.94,268.36,317.49,264.85,317.95z M251.65,282.78l-0.76-0.07
			c4.36,5.51,7.88,11.73,10.31,18.46c0.47,0.07,0.93,0.15,1.39,0.2c2.05,0.29,5.56,0.43,9.6,0.52c-1.98-6.68-4.86-12.99-8.49-18.76
			C258.79,283.47,255.01,283.13,251.65,282.78z M137.37,343.65c0,0-3.19-12.62-3.29-19.93c-3.55-0.45-7-0.72-10.25-0.83l0,0.48
			c0,7.43,3.01,20.93,3.01,20.93c0.11,0.54,0.28,1.15,0.32,1.36c0.07,0.22,0.57,0.37,1.13,0.37h8.8c0.55,0,0.89-0.31,0.77-0.7
			C137.72,344.95,137.51,344.19,137.37,343.65z M136.16,307.02c1.88-7.27,4.94-14.09,9.03-20.15c-3.39,0.27-7.44,0.73-12.89,1.76
			c-2.99,5.74-5.22,11.93-6.66,18.42C128.87,306.81,132.38,306.81,136.16,307.02z M157.94,272.82
			c11.32-9.35,25.84-14.97,41.64-14.97c12.02,0,23.28,3.27,32.99,8.95c2.69-1.1,4.85-1.9,6.07-2.16c2.37-0.51,5.41-0.2,9.28,0.44
			c-13.13-10.9-29.97-17.46-48.33-17.46c-24.39,0-46.12,11.6-59.99,29.54c3.74-1.03,7.08-2,9.25-2.7
			C151.49,273.6,154.52,273.06,157.94,272.82z M118.33,287.89c1.21-0.16,5.45-0.86,10.43-1.88c10.03-2.03,15.69-2.37,20.99-2.67
			c10.06-0.56,25.12,0.98,37.18,6.98c0.93,0.45,1.39,0.97,1.42,1.6c0.08,1.69-2.71,4.48-3.84,5.17c0,0,3.51,0.19,5.7-0.46
			c0.83-0.25,1.75-0.32,3.02-0.4c1.66-0.11,3.92-0.27,7.43-0.91c6.99-1.28,10.12-3.02,13.43-4.86l0.24-0.13
			c2.15-1.2,21.17-8.97,21.17-8.97c11.42-4.67,16.21-0.15,29.89-1.63c13.66-1.45,24.48-5.43,32.82-6.13
			c1.57-0.12-2.01-1.16-2.96-1.26c-4.04-0.48-23.24-0.05-29.11-0.83c-12.79-1.72-22.33-4.69-26.81-3.74
			c-4.43,0.95-24.27,10.4-32.3,14.44l-4.75,1.07c-2.44-0.59-35.08-11.4-52.43-5.79c-8.54,2.76-34.26,9.48-34.26,9.48
			C112.99,287.76,117.11,288.05,118.33,287.89z M367.79,278.2c-0.18-0.96-1.12-1.72-2.07-1.72h-18.75c-0.97,0-2.1,0.7-2.52,1.58
			l-32.29,66.13c-0.43,0.87,0.01,1.57,0.98,1.57h18.84c0.94,0,2.05-0.71,2.42-1.59l2.13-4.95c0.37-0.86,1.45-1.58,2.4-1.58h18.74
			c0.96,0,1.83,0.77,1.93,1.73l0.51,4.66c0.11,0.96,0.99,1.72,1.95,1.72h17.45c0.97,0,1.58-0.77,1.41-1.71L367.79,278.2z
			 M344.4,323.55c-0.96,0-1.44-0.72-1.06-1.61l9.38-22.49c0.4-0.89,0.79-0.82,0.92,0.13l3.3,23.96H344.4z M398.18,276.47
			c-0.96,0-1.86,0.77-2,1.74l-9.99,65.83c-0.15,0.96,0.52,1.71,1.47,1.71h52.6c0.96,0,1.86-0.76,1.98-1.71l1.87-13.16
			c0.13-0.96-0.52-1.72-1.48-1.72h-30.64c-0.96,0-1.62-0.78-1.49-1.73l1.13-7.79c0.13-0.94,1.03-1.73,1.97-1.73h24.73
			c0.96,0,1.88-0.77,2.01-1.71l1.94-12.05c0.15-0.94-0.51-1.71-1.46-1.71h-24.87c-0.93,0-1.6-0.78-1.45-1.71l0.97-6.1
			c0.14-0.95,1.08-1.71,2.03-1.71h28.55c0.94,0,1.85-0.78,1.99-1.73l2.22-14.7H398.18z M576.03,329.16h-30.66
			c-0.96,0-1.63-0.78-1.48-1.73l1.13-7.79c0.12-0.94,1.01-1.73,1.96-1.73h24.77c0.95,0,1.85-0.77,2.01-1.71l1.92-12.05
			c0.15-0.94-0.53-1.71-1.47-1.71h-24.82c-0.97,0-1.62-0.78-1.48-1.75l0.96-6.06c0.15-0.95,1.06-1.71,2.02-1.71h28.57
			c0.96,0,1.86-0.78,2.01-1.73l2.21-14.7h-52.11c-0.97,0-1.86,0.77-2,1.74l-10.01,65.83c-0.15,0.96,0.54,1.71,1.47,1.71h52.61
			c0.98,0,1.86-0.76,2-1.71l1.9-13.16C577.65,329.92,576.99,329.16,576.03,329.16z M633.64,278.2c-0.21-0.96-1.14-1.72-2.1-1.72
			h-18.74c-0.96,0-2.08,0.7-2.5,1.58l-32.34,66.13c-0.4,0.87,0.03,1.57,0.98,1.57h18.87c0.94,0,2.05-0.71,2.43-1.59l2.12-4.95
			c0.4-0.86,1.5-1.58,2.45-1.58h18.72c0.96,0,1.82,0.77,1.93,1.73l0.57,4.66c0.08,0.96,0.97,1.72,1.95,1.72h17.4
			c0.96,0,1.58-0.77,1.4-1.71L633.64,278.2z M610.21,323.55c-0.96,0-1.43-0.72-1.05-1.61l9.41-22.49c0.38-0.89,0.78-0.82,0.92,0.13
			l3.26,23.96H610.21z M707.1,276.47c-0.95,0-1.85,0.77-2,1.74l-4.8,31.7c-0.17,0.94-0.36,2.49-0.45,3.45l-0.25,5.02
			c-0.03,0.94-0.21,0.97-0.37,0.03l-1.09-4.82c-0.28-0.92-0.82-2.38-1.22-3.25l-14.66-32.28c-0.38-0.87-1.5-1.58-2.46-1.58h-16.83
			c-0.98,0-1.87,0.77-2,1.74l-9.92,65.83c-0.15,0.96,0.51,1.71,1.47,1.71h17.16c0.96,0,1.85-0.76,1.99-1.71l4.82-32.25
			c0.14-0.96,0.33-2.47,0.4-3.36c0.08-0.9,0.11-2.55,0.12-2.55c0.01-0.96,0.01-2.17,0.01-2.69c0-0.53,0.13-0.21,0.28,0.75l0.76,4.23
			c0.21,0.93,0.72,2.41,1.11,3.27l15,32.74c0.39,0.87,1.51,1.57,2.46,1.57h16.97c0.96,0,1.86-0.76,1.99-1.71l10.23-67.56H707.1z
			 M520,308.65c0.1-0.96-0.62-1.74-1.57-1.74h-17.34c-0.95,0-1.74,0-1.74,0.03c0,0-0.79,0.03-1.75,0.03h-3.59
			c-0.96,0-1.87,0.79-2.01,1.73l-1.91,12.04c-0.15,0.95,0.51,1.72,1.48,1.72h2.31c0.95,0,1.35,0.69,0.89,1.51
			c0,0-0.9,1.63-1.95,2.73c-2.94,3.07-6.65,4.59-11.16,4.59c-4.36,0-7.57-1.55-9.62-4.65c-2.08-3.12-2.58-8.24-1.49-15.37
			c1.08-7.2,3.13-12.35,6.16-15.47c3.03-3.11,6.65-4.66,10.87-4.66c4.39,0,7.65,1.54,9.76,4.61l0.3,0.43
			c0.28,0.57,1.29,1.01,2.25,1.01h18.43c0.95,0,1.54-0.74,1.28-1.66c0,0-2.05-7.9-4.94-11.47c-5.11-6.32-13.3-9.48-24.53-9.48
			c-10.94,0-19.98,3.22-27.08,9.63c-7.09,6.42-11.53,15.41-13.3,26.96c-1.25,8.23-0.74,15.09,1.52,20.62
			c2.27,5.51,5.71,9.52,10.3,12.07c4.58,2.54,10.72,3.81,18.32,3.81c7.48,0,13.96-1.48,19.41-4.43c5.47-2.93,9.94-7.03,13.38-12.35
			c3.47-5.29,5.81-12.05,7.06-20.28C519.91,309.35,520,308.65,520,308.65z"/>
	</g>
</g>
</svg>
