<svg xmlns="http://www.w3.org/2000/svg" height="800" width="1200" version="1.0" viewBox="-487.4388 -153.074 4224.4696 918.444"><path d="M2354.864 612.296s95.555-11.923 226.706-139.272L3010.963 0h238.63l-198.8 608.322z" clip-path="url(#SVGID_30_)" fill="#de0038"/><path d="M2654.748 452.03s3.283-3.888 6.048-3.888c3.024 0 5.702 3.887 5.702 3.887zm440.885-238.197c2.85-.173-88.212-4.493-117.414 1.21-29.289 5.615-56.85 9.417-83.805 48.295-26.956 38.62-51.32 77.671-67.39 100.048-50.629 70.24-50.629 81.473-106.873 86.484-30.153 2.678-38.188 1.123-45.79-2.42-9.331-4.492-13.738-9.59-26.697.692-14.86 11.922-35.337 8.985-34.818 10.8h429.393s20.822.69 28.166-12.442l-10.714-3.974s-2.332 13.65-45.012 9.59c-42.594-3.974-98.32-14.515-98.32-14.515l132.187-186.618c8.208-10.194 19.44-20.821 30.153-30.325 0 0-53.394 5.616-75.857 38.188-22.809 33.09-124.066 171.93-124.066 171.93l-6.912-1.123 129.337-179.793c.086-.086 19.007-30.411 94.432-36.027" clip-path="url(#SVGID_30_)" fill="#fff"/><path d="M2660.71 430.257c-7.603 0-13.824 9.763-13.824 9.763h27.906c-.085.087-6.48-9.763-14.082-9.763" clip-path="url(#SVGID_30_)" fill="#fff"/><path d="M2265.53 453.066l-3.543 35.077-84.323.087s-14.515-1.987-17.625 8.985c-4.32 13.478 8.121 11.664 8.121 11.664l66.526.432s30.67 9.763 30.152 40.347c-.518 28.684-14.86 50.024-39.138 50.197h-109.378l2.332-33.436h105.923s19.094-14.515 0-23.413h-75.943s-23.5-1.556-24.19-34.127c-.347-26.956 5.096-33.782 16.674-43.372 13.823-11.922 33.263-11.922 33.263-11.922zm-2085.367 0l-3.628 35.077-84.065.087s-14.6-1.987-17.625 8.985c-4.32 13.478 7.949 11.664 7.949 11.664l66.612.432s30.671 9.763 30.066 40.347c-.518 28.684-14.774 50.024-39.051 50.197H31.128l2.16-33.436H139.47s18.835-14.515 0-23.413H63.527s-23.759-1.556-24.277-34.127c-.519-26.956 4.924-33.782 16.502-43.372 13.996-11.922 33.435-11.922 33.435-11.922z" clip-path="url(#SVGID_30_)" fill="#de0038"/><path transform="translate(-5351.841 -26184.101) scale(86.39707)" clip-path="url(#SVGID_2_)" fill="#de0038" d="M84.932 310.015h1.412l.028-.39h-.986l.014-.255h.952l.02-.391h-.944l.021-.27h.959l.021-.406h-1.362zm-.611 0l-.682-1.014-.072 1.014h-.417l.135-1.704h.41l.675 1.079.086-1.079h.405l-.121 1.704zm-1.852 0l.143-1.704h.403l-.128 1.704zm-.115-.405l-.047.391h-1.209l.128-1.69h.411l-.091 1.299z"/><path d="M1509.382 453.066l-10.886 146.616h34.905l9.244-109.81h57.109s8.812-1.124 6.566 12.44c-1.814 10.887-9.245 8.467-9.245 8.467h-44.58l48.9 89.508h41.125l-34.99-63.156s34.558-1.815 34.558-40.52c0-38.534-28.338-43.545-37.582-43.545z" clip-path="url(#SVGID_32_)" fill="#de0038"/><path clip-path="url(#SVGID_2_)" d="M1333.564 544.474l23.846-42.075 14.169 42.075zm44.063-91.408h-36.2l-85.88 146.616h43.718l19.439-32.485h60.132l10.54 32.485h40.348zm-358.03 91.408l23.846-42.075 14.17 42.075zm44.15-91.408h-36.201l-85.792 146.616h43.544l19.612-32.485h60.132l10.368 32.485h40.434z" fill="#de0038"/><path transform="translate(-5351.841 -26184.101) scale(86.39707)" clip-path="url(#SVGID_2_)" fill="#de0038" d="M78.593 310.015l.141-1.704h.406l-.128 1.704zm-3.654 0l.141-1.704h.404l-.127 1.704z"/><path clip-path="url(#SVGID_2_)" d="M399.526 544.474L423.37 502.4l14.083 42.075zm44.148-91.408h-36.2l-85.879 146.616h43.545l19.698-32.485h60.046l10.368 32.485h40.606z" fill="#de0038"/><path transform="translate(-5351.841 -26184.101) scale(86.39707)" clip-path="url(#SVGID_2_)" fill="#de0038" d="M72.483 310.008l.043-.624h-.731l-.065.624h-.41l.134-1.697h.426l-.05.682h.724l.064-.682h.406l-.136 1.697zm-7.171 0l.041-.624h-.73l-.064.624h-.41l.133-1.697h.426l-.05.682h.725l.063-.682h.405l-.135 1.697z"/><path d="M803.605 453.066h-93.482s-52.27 1.987-54.69 45.359c-2.418 43.63-1.814 56.33-1.814 56.33s-1.123 44.927 40.52 44.927h100.48l3.715-90.803h-69.808l-1.296 33.176h34.904l-1.9 23.241h-61.17s-10.54 1.382-10.54-10.454c0-11.577 2.592-52.011 2.592-52.011s0-16.07 23.154-16.07h86.484z" clip-path="url(#SVGID_34_)" fill="#de0038"/><path transform="translate(-5351.841 -26184.101) scale(86.39707)" clip-path="url(#SVGID_2_)" fill="#de0038" d="M68.843 310.001l-.675-.986-.071.993h-.425l.134-1.705h.405l.684 1.081.1-1.078.395-.003-.114 1.698z"/><path d="M409.288 360.708c-6.998 21.08 20.131 41.557 31.622 24.537 43.198-64.366 37.323-112.23 37.323-112.23s-63.415 71.19-68.945 87.693m1050.934-77.585c-4.665 9.417-31.534 14.17-31.534 14.17v-33.955s57.28-19.871 23.327-30.412c-33.954-10.454-88.903 25.833-88.903 25.833 7.085 16.243 38.533 11.577 38.533 11.577l-1.037 30.326s-42.334 6.048-53.911 6.048c-17.453 0-27.993 9.33-27.993 17.365 0 8.38 24.537 12.96 24.537 12.96 5.875-9.504 54.948-12.96 54.948-12.96s75.166-10.28 83.114-19.87c11.577-13.997-16.502-30.326-21.08-21.082M221.72 258.76c-24.796 11.663-47.172 10.453-47.172 10.453l6.998-82.768h38.965c39.051-15.379 2.419-40.175 2.419-40.175h-73.265c-14.169-27.301-30.152-13.996-37.928 2.333-10.627 22.463 20.13 130.2 20.13 130.2s-18.834 5.962-34.3 7.085C82.19 287.01 6.334 302.735 1.754 316.645c-9.59 28.511 22.464 29.634 40.262 33.177 17.71 3.628 203.378-37.842 214.005-41.384 10.8-3.63 22.636-13.046 21.34-33.09-1.21-20.217-44.149-22.205-55.64-16.589m262.215-83.373c-8.208-63.934-46.05-46.136-46.05-46.136s-22.636 8.294-5.875 33.004c35.423 36.891 51.925 13.132 51.925 13.132m-30.671 80.609c-8.208-64.02-46.136-46.31-46.136-46.31s-22.55 8.295-5.962 33.177c35.51 36.719 52.098 13.133 52.098 13.133m169.251 16.415c-4.147 7.517-23.586-27.129 0-30.757 0 0 16.502 0 0 30.757m-9.417 41.384c-8.208 6.912-24.882-24.882 0-27.042 0-.087 19.871 10.54 0 27.042m-13.391-65.92c-3.802 8.553-6.653.518-10.54-.346-11.664-2.247 4.837-16.589 4.837-16.589s12.355 1.037 5.703 16.934m-73.006 97.974c-9.676-2.85 31.967-47.518 31.967-47.518s34.472 22.809 33.09 31.017c-2.592 12.873-45.1 22.376-65.057 16.501m47.173-80.435s9.59 3.283 8.467 10.54h-13.219zm127.781-8.294c-12.873-7.085-36.632 6.998-36.632 6.998s10.627-56.85-1.21-59.096c-11.663-2.419-57.886 24.71-59.009 11.837-1.123-12.96 65.057-59.096 65.057-59.096s8.035-7.17-2.42-12.01c-23.672-10.712-107.65 45.014-112.488 47.433-4.666 2.333-5.875-3.542-5.875-3.542s63.934-99.443 68.6-112.317c4.837-13.218-9.504-26.178-30.758-17.884-21.34 8.294-8.208 41.298-8.208 41.298 5.789 7.17-27.301 45.013-27.301 45.013s-36.633 55.64-37.842 65.143c-1.21 9.418 9.417 24.883 16.588 15.465 7.085-9.503 66.267-22.463 66.267-22.463l-50.888 82.768s-37.929 1.21-52.098 8.295c-14.169 6.998-7.084 22.463-7.084 22.463s42.248-5.184 34.3 3.456c-30.758 34.386-24.797 61.514-24.797 61.514l99.443-14.169s-11.836 54.603-1.296 53.307c41.644-4.665 43.717-54.43 43.717-54.43l10.714-11.836s7.17-53.307 7.17-63.934c0-10.627 41.471-4.666 50.802-7.085 9.504-2.332 8.38-20.13-4.752-27.128M1539.88 84.15c-24.882 17.712-68.599 26.093-74.56 24.97-5.961-1.383-50.888-43.89-50.888-43.89-40.261-7.171-35.423 15.378-35.423 23.673 0 8.294 30.671 36.632 30.671 36.632-9.417 8.294-82.855 16.588-82.855 16.588s-37.582-9.33-47.345 0c-28.339 27.302-8.208 74.56-1.037 82.941 6.998 8.035 17.625-8.38 21.167-13.218 3.543-4.493-3.542-35.337-1.123-41.385 2.333-5.788 62.724-18.834 62.724-18.834 7.171 56.85-22.55 63.847-22.55 63.847l-1.209 8.294s8.294 8.208 15.465 1.296c56.331-56.33 31.88-84.15 37.842-82.94 5.962 1.209 59.269-11.837 59.269-11.837s72.141-27.215 75.597-17.712c6.912 18.49-29.548 35.51-29.548 35.51 5.875 5.961 28.425-4.752 28.425-4.752s39.051 7.084 48.469-21.34c6.22-18.23-23.241-44.927-33.09-37.842" clip-path="url(#SVGID_36_)" fill="#de0038"/><path d="M1497.287 178.842c-3.456 4.838-12.01 2.333-12.01 2.333 10.8-16.502-2.246-47.346-14.082-47.346s-23.76 46.136-15.465 66.267c8.294 20.13 55.726 11.75 55.726 11.75s4.06-4.234 10.627-16.502c9.503-17.539-21.254-21.168-24.796-16.502m357.943 94.086l-7.085 31.017c-8.467-7.085-48.987 15.724-48.987 15.724s-9.503 3.456-10.713-3.801c-1.123-7.171 44.149-48.728 44.149-61.86 0-13.306-27.474-6.048-27.474-6.048l-63.33 75.251s-7.084 17.971 15.552 23.76c37.064 9.59 96.765-26.351 96.765-26.351s9.503 25.141 20.303 20.476c10.713-4.925 30.153-21.686 20.217-45.359-19.007-45.445-39.397-22.809-39.397-22.809m-106.269-76.461c8.554-9.677-5.96-37.496-30.239-33.695-24.104 3.456-53.307 63.156-44.58 74.647 10.8 14.688 66.525-31.19 74.82-40.952m151.54-63.243c-41.125 17.02-8.467 81.127-2.506 89.335 5.962 8.467 32.054 5.702 34.991-4.752 7.258-25.4-4.665-95.987-32.485-84.583m373.581-61.601c-3.629 3.456-92.359 34.386-92.359 34.386s-41.557-11.836-43.803 18.921c11.923 37.842 45.013 13.046 45.013 13.046 52.011-37.842 75.684-34.3 75.684-34.3l2.505 208.217s-36.46 34.214-18.143 59.269c16.847 22.463 34.559 0 41.73-8.38 7.084-8.381 11.836-260.315 11.836-270.856-.086-10.8-19.007-23.932-22.463-20.303" clip-path="url(#SVGID_36_)" fill="#de0038"/><path d="M2108.287 203.033l-28.425 1.21c-3.542 18.92 23.673 25.832 40.261 18.92 73.351-30.843 84.065-54.43 84.065-54.43-10.714-20.044-95.901 34.3-95.901 34.3m39.051 85.187c-17.711 10.627-34.3 13.047-36.632-4.665 0 0 44.926-40.174 47.432-34.386 2.246 5.962 6.998 28.338-10.8 39.052m22.377-65.057c-15.292 1.123-83.805 56.849-83.805 56.849 4.493 47.346 57.886 36.546 69.722 31.967 11.75-4.838 39.052-60.392 43.804-67.476 4.752-7.171-14.256-22.55-29.72-21.34m-1025.448 39.224s-.432-4.147-4.838-1.642c-18.834 10.627-9.504 62.206-43.112 69.118-40.952 8.38-56.158-16.502-59.873-33.09-4.32-20.476 23.413-70.673 28.079-86.138 4.752-15.379-31.362-16.156-31.362-16.156 15.465-24.537 28.683-40.348 44.235-37.065l1.037-12.873-10.627.519s2.16-30.153-31.362-49.333c-18.403-10.713-37.842 4.233-38.879 7.948-10.972 39.83 40.52 35.596 40.175 48.988-.432 9.503-52.789 15.206-62.552 20.13-7.084 3.456-7.948 14.428-1.21 18.316 13.306 7.344 43.286-16.847 49.247-22.377 5.875-1.036 2.506 7.085 1.21 11.146-5.443 17.797-47.432 66.093-83.72 131.842-1.727 3.283.52 15.637 7.258 10.022 6.48-5.357 47.778-79.313 62.552-92.964 20.39-18.661 28.597-9.849 28.424-4.233-.69 16.415-35.336 91.754-8.553 119.4 19.353 20.218 94.518 10.455 112.662 1.037 4.233-2.246 10.886-11.058-1.123-22.117-8.64-8.035 2.332-60.478 2.332-60.478M905.38 272.583c-2.419.259-4.233-1.123-4.233-1.123s-1.814-11.146 1.123-12.787c3.11-1.642 4.32-.605 4.32-.605s1.037 14.17-1.21 14.515m25.92-47.95c-2.247-7.863 19.87-27.648 10.022-42.508-3.283-9.244-23.5-7.862-23.5-7.862s18.92-30.585 22.463-45.877c3.542-15.465-23.932-23.068-23.932-23.068-43.544 32.572-93.482 122.597-93.482 122.597s5.098 12.528 8.554 2.938c3.542-9.417 48.9-36.2 48.9-36.2 14.774 25.4 32.918 4.32 32.918 4.32s-.346 17.106.086 21.599c.518 3.11-22.118-8.9-31.362-7.69-20.822 2.333-.778 22.982-.778 22.982 0 6.912-.605 10.281-.432 13.132-4.32 3.37-13.478 1.21-13.478 1.21s3.715-35.423-2.246-36.114c-5.184-.605-11.836 11.49-11.836 11.49s-4.147 22.291-5.53 37.324c-75.943 15.725-80.781 26.61-80.781 26.61s.864 12.183 9.936 16.675c8.812 4.406 17.365 6.826 25.314-5.443 6.134-9.244 43.976-25.66 43.976-25.66l-2.505 66.526s.604 22.29 12.873 17.107c16.847-6.653 12.614-83.978 12.614-83.978l5.27.69c5.27 36.115 31.016 33.696 31.016 33.696s5.962 9.417 3.543 15.378c-2.333 5.962-17.452 3.975-17.452 3.975 7.516 10.28 12.786 4.665 17.797 34.386 1.642 9.244 21.081-1.469 24.191-9.59 3.024-7.863-2.764-98.407-2.764-98.407 33.522-33.435 1.987-29.202.605-30.239" clip-path="url(#SVGID_36_)" fill="#de0038"/></svg>