<svg xmlns="http://www.w3.org/2000/svg" height="800" width="1200" viewBox="-19.377375 -9.396125 167.93725 56.37675"><path d="M33.9087.1294s1.46-.142 1.961-.0864c.58.0659 1.7494.542 2.3285.6074.4854.0547 1.507.3301 1.9927.3032.6035-.0322 1.5986-.6934 2.4863-.5371C47.3385 1.2374 54.461 9.628 59.19 9.4239 67.7241 9.056 67.5249 0 69.7832 0h21.835C78.8163 5.8926 70.085 12.4556 74.6136 16.2905c4.1456 3.5118 16.6148-.8666 16.6148-.8666S86.0307 20.602 77.061 20.602c-17.3515 0-29.0063-14.7535-37.6274-18.3276-1.3677-.566-3.9815-1.6573-5.5249-2.1451" fill="#529fc9"/><path d="M52.2359 28.1411l2.9247 4.2222-3.4116 4.9722h2.1768l2.2744-3.2486 2.437 3.2486h2.3394l-3.542-4.9722 2.8603-4.2222H58.085l-1.7223 2.5513-1.9173-2.5513h-2.2095m10.1811 9.1944h1.8428V28.141H62.417zm6.5435-2.9775l1.438-4.0357 1.5185 4.0356zm2.3817-6.2169h-1.9496l-3.6387 9.1944h1.9043l.796-1.9532 3.96.0035.6834 1.9497h2.0143l-3.7696-9.1944m4.7437 9.1944l.9091-9.1944h2.1778l2.6967 5.4908 2.6645-5.4908h2.1769l.8154 9.1944H85.705l-.5201-6.3037-3.3789 6.4673L78.6543 31l-.6177 6.3354H76.086m19.3774-9.1943h-5.8471v9.1944h6.1214v-1.229h-4.4433V33.23h3.4658v-1.2559h-3.4658v-2.643h4.169v-1.19m2.3291 0v9.1944h1.7334V30.891l5.6309 6.4444h1.084V28.141h-1.732v5.8716L99.439 28.141h-1.6465m-73.2632 9.3898H25.2V27.3833h-.6708zm13.2901 0h.6714V27.3833h-.6714zm-26.7095 0h.6709V27.3833h-.671zm6.292-8.7564v-1.0971h4.0248c.4732 0 .8374.145 1.091.4355.2504.2861.3758.669.3758 1.1514v6.5454c0 .482-.0679.8374-.2026 1.0684-.2612.4355-.6259.6528-1.0972.6528h-.4003l-.9195-1.0791h1.1572c.1329.0039.2608-.0708.3863-.2237.0914-.1118.1372-.2978.1372-.5537v-6.1767c0-.4824-.2085-.7232-.6245-.7232zm-3.8272 8.7564v-7.9336h.939v7.9336zm0-9.108v-.6918l.83-.144v.5541c0 .1133.125.2784.301.2784l2.1117-.0088v.7592l-2.2154.0088c-.644 0-1.0273-.4209-1.0273-.7558M31.602 37.456l-.6821-.5868c.292-.0772.4917-.4038.5517-.4678.1124-.1157.1769-.459.1769-.7651v-3.6465c0-.4575.0625-.6553.1709-.8506.105-.1978.2538-.354.4457-.4663.1597-.0967.4209-.1685.5528-.1734l1.2006-.0063c.3038-.0034.5596.104.7666.3223.2569.2724.3858.6289.3858 1.0673l-.0083 3.4434c0 .4565.0083.8032.038.8901.0509.145.1457.2906.2667.2906h1.0093l-.3902.8628c-.8285.0473-1.1773.0317-1.4009-.1783-.2441-.2334-.4619-.647-.4619-1.0986l.0079-3.3154c0-.5386.0107-.8145-.0274-.8887-.1035-.1987-.2348-.2969-.3906-.2969l-.689-.0083c-.1391 0-.251.0352-.3345.1065-.1323.1045-.1988.2246-.1988.355l.0046.244-.008 3.1241c0 .5381-.0414.919-.1224 1.146-.1114.3189-.5415.8667-.8634.897zm-.5736-7.7353V28.92h1.9281l-.6558-1.333H33.52l.7164 1.333h1.9467v.8007zm-2.3639 1.9297s-.2201-.6235-.266-.9472c-.0416-.294-.063-.8619-.063-.8619l.8134-.0561s.0132.4702.0713.8315c.0464.292.0674.4688.235.935zm.0294 3.7149s-.1788-.6446-.2241-.9693c-.0425-.294-.1178-1.062-.1178-1.062l.7374-.0537s.0546.6128.1132.9741c.0479.2906.1017.3233.2818 1.0117zm-.6001-3.3374h1.7348l-.0053-2.3721c0-.1475-.0338-.2515-.1012-.3096-.0473-.0366-.1411-.059-.2792-.059h-1.086c-.1758 0-.2631.1635-.2631.4912zm-.8184 5.4282l-.6998-.5503c.2769-.2334.6237-.5117.6339-1.1196l.0049-2.6792h-.6485v-1.0791h.6485v-2.2437c0-.4175.0366-.6753.0366-.7812 0-.4249.5981-.7408 1.0781-.7408l.3082-.706h1.0356l-.2959.7217.3549-.0064c.2945 0 .5299.1104.7066.3272.1621.204.2431.4677.2431.7949v2.6343h.3868v1.079h-.3868v3.1797c0 .336-.0581.5884-.1718.7608-.1773.2646-.436.394-.778.3906l-.578-.0098-.541-1.0449h.9204c.1894-.0039.2954-.1636.2954-.4175V33.107h-1.7349v2.5625c0 1.0507-.2446 1.2934-.8183 1.7866m17.9712-3.8975h3.2852v-.9448H40.765v.9448h3.542v2.981h-4.395v.7656h9.5582v-.7656h-4.2237v-2.981m3.9136-4.8721c-.2123-.2246-.4887-.3393-.8276-.3393h-3.081v-.6763h-.9444v.6763h-3.3286c-.2651 0-.5069.1162-.7265.3442-.2266.2383-.3399.567-.3399.9878v.8291h.939v-.4956c0-.1494.0424-.2788.1274-.392.1011-.128.2231-.193.3648-.193h1.5234c-.0396.211-.2325.775-.8178 1.3614-.3433.3428-1.4049 1.2817-1.876 1.4731h2.0463c.3574-.2724.6587-.4785 1.275-1.2085.2412-.2832.6664-.808.895-1.621h.9013l-.0077 1.3388s-.0528.9106.5194 1.1626c.1973.0898.6256.1108 1.1128.107l2.023-.006.0029-.9252-1.6069-.0025s-.4253.0455-.752-.0732c-.2572-.0937-.2006-.3696-.2006-.712v-.8944h1.622c.1553 0 .2852.0649.3906.1928.105.1328.1578.2735.1578.419v.4687h.9346v-.9048c0-.3818-.1094-.6875-.3263-.917M0 37.2378l1.0103.1792c.2636-.354.396-.8032.396-1.3486v-6.5757c0-.4668.2006-.7012.6044-.7012h7.519v-1.0971H1.9293c-.2744 0-.4961.0351-.6646.105-.1357.0536-.2749.162-.417.3198-.2539.2856-.3808.6455-.3808 1.0864v6.9922c0 .3965-.1245.7812-.4668 1.04" fill="#244584"/><path d="M5.976 35.9414s-.4975-.3003-.9545-.5981l-1.3496-.0083c.08-.0991.1557-.1943.2456-.292h3.8564zM3.398 33.068v-.1758h4.766v.1514c0 .1645-.0756.2456-.2284.2456H3.5088c-.0742 0-.1109-.0747-.1109-.2212zm0-1.1436h4.766v.3829H3.398zm0-.8227c0-.1563.0742-.2344.2231-.2344h4.3398c.1353 0 .2032.0781.2032.2344v.145H3.398zm5.1772 5.7295c-.253-.023-.7695-.1768-1.2388-.476.7012-.3395 1.1778-.7018 1.3506-.8253.206-.149.31-.354.31-.6201 0-.167-.0478-.3037-.142-.4136-.125-.144-.3662-.2173-.7212-.2173H4.6636l.127-.2246h3.4902c.4433 0 .666-.2549.666-.7651v-2.5269c0-.1894-.062-.3569-.1836-.502-.1084-.1259-.2744-.187-.2852-.187H6.142l.3092-.2929h3.0786v-.788H1.9292v.788h3.483l-.2789.293H3.0879c-.1729 0-.3145.061-.4268.187-.1289.1401-.1923.3281-.1923.5674v2.5078c0 .2182.0703.3999.2133.5488.104.1128.25.17.4356.17h.168c-.1857.4392-1.1857 1.49-1.5894 1.7966l1.5054.0132a4.4433 4.4433 0 00.3872-.4273c.7573.6265 1.0825.8487 1.0825.8487-.938.4321-1.9395.5869-2.6104.5869h-.1767v.7119c1.6758 0 2.8252-.249 4.1343-.7788.7685.476 1.6128.6191 1.9375.6675.3994.0634.8666.1 1.4018.1113v-.712c-.126-.0082-.246-.0131-.3608-.018-.2173-.0073-.3575-.0146-.4219-.0234m101.8467-2.7109l1.8955-4.7534 1.7871 4.7534zm2.4047-5.979h-1.1693l-3.7477 9.1944h1.2779l1.0171-2.4585h4.2041l1.0166 2.4585h1.3003l-3.899-9.1944m5.5674 9.1944h1.0195V28.141h-1.0195zm4.7232-5.2955v-3.0776l2.6203.0235c.7362 0 1.4075.6713 1.4075 1.538 0 .7154-.4975 1.5367-1.5163 1.5367zm3.2716.8018c.6474 0 1.8612-1.04 1.8612-2.3398 0-1.2783-1.0825-2.3609-1.9925-2.3609h-4.1794v9.1944h1.0596v-4.5166h2.0586l2.8612 4.5166h1.125l-2.7938-4.4937" fill="#244584"/></svg>